<svg xmlns="http://www.w3.org/2000/svg" width="290.22208mm" height="135.14417mm" viewBox="0 0 290.22208 135.14417"><path d="m154.485 140.948 13.031-60.582h-21.218l-10.033 52.125V80.366H113.67v86.855c13.419-4.665 27.97-10.02 42.803-15.968zm35.895-5.15c0-4.847 3.13-8.956 7.478-10.44V80.182h-22.645v63.279a674.958 674.958 0 0 0 15.21-6.775 11.581 11.581 0 0 1-.043-.888zm93.872-40.31c-2.303-6.332-23.916-5.358-56.463 1.747V80.182h-22.803v45.176a11.034 11.034 0 0 1 3.98 2.395 461.493 461.493 0 0 0 13.816-7.266h-.001c4.014-2.164 5.008-5.92 5.008-7.984v-12.318c24.558-5.25 40.798-6.329 42.37-2.176 1.437 3.8-9.504 11.698-28.451 21.599l.002.002c-8.374 4.376-18.319 9.144-29.447 14.123.127.67.2 1.359.2 2.065 0 4.85-3.13 8.962-7.477 10.447v46.503c0 2.703-1.072 4.517-3.653 4.517-2.622 0-3.475-1.814-3.475-4.517v-46.503a11.064 11.064 0 0 1-5.368-3.971c-15.487 6.472-32.51 13.117-50.341 19.58a1136.558 1136.558 0 0 1-41.131 14.044l-.282.09a913.45 913.45 0 0 1-22.745 6.947v9.451c0 6.465-2.167 6.465-6.49 6.465V96.013c4.323 0 6.49 0 6.49 6.462v76.484a1146.968 1146.968 0 0 0 22.745-7.332v-70.838c0-20.869-19.422-20.309-19.422-20.309H48.788v80.443c-35.541 17.647-56.9 33.027-54.344 40.045 2.25 6.184 22.994 5.6 54.344-.872v14.519h32.668s19.28.799 19.28-21.056v-6.87a843.391 843.391 0 0 0 12.933-4.01v31.853h22.597v-39.394c.902-.316 1.812-.637 2.718-.957l6.392 40.35h23.29l-9.218-47.84a891.491 891.491 0 0 0 15.766-6.155v33.937c0 17.613 14.886 20.854 26.325 20.854 11.309 0 26.25-3.273 26.25-21.045v-57.146c36.835-18.323 59.073-34.482 56.463-41.648zM48.788 190.724c-24.46 5.809-40.433 7.37-41.878 3.193-1.604-4.639 14.839-16.072 41.878-29.757Z" style="fill:#005296;stroke:none;stroke-width:.352778" transform="translate(5.763 -80.182)"/></svg>