<svg width="119" height="86" viewBox="0 0 119 86" fill="none" xmlns="http://www.w3.org/2000/svg">
<ellipse cx="59.1642" cy="72.3192" rx="59.1063" ry="13.282" fill="url(#paint0_radial_324_2053)" fill-opacity="0.2"/>
<path d="M96.4927 59.4858C96.4927 54.091 92.1117 49.71 86.7169 49.71H30.9315V69.259H86.7194C92.1142 69.259 96.4952 64.878 96.4952 59.4833L96.4927 59.4858Z" fill="url(#paint1_linear_324_2053)"/>
<path d="M36.2984 11.3705C42.5476 11.3705 47.8716 14.7555 49.894 19.4955C51.9164 14.7555 57.2404 11.3705 63.4896 11.3705C71.4781 11.3705 77.9548 16.9017 77.9548 23.7273V69.2617H25.5443C23.4941 69.2617 21.8332 67.8435 21.8332 66.0916V23.7273C21.8332 16.9043 28.3099 11.3705 36.2984 11.3705Z" fill="url(#paint2_linear_324_2053)"/>
<path d="M63.4113 45.6828C60.4054 45.6828 57.9686 43.246 57.9686 40.24C57.9686 37.2341 60.4054 34.7972 63.4113 34.7972C66.4173 34.7972 68.8541 37.2341 68.8541 40.24C68.8541 43.246 66.4173 45.6828 63.4113 45.6828Z" fill="#A5BDF9"/>
<path d="M36.3565 45.6677C33.3506 45.6677 30.9137 43.2309 30.9137 40.2249C30.9137 37.2189 33.3506 34.7821 36.3565 34.7821C39.3625 34.7821 41.7993 37.2189 41.7993 40.2249C41.7993 43.2309 39.3625 45.6677 36.3565 45.6677Z" fill="#A5BDF9"/>
<path d="M56.7778 43.2156C52.8308 43.2156 49.6311 39.4511 49.6311 34.8074C49.6311 30.1637 52.8308 26.3993 56.7778 26.3993C60.7248 26.3993 63.9244 30.1637 63.9244 34.8074C63.9244 39.4511 60.7248 43.2156 56.7778 43.2156Z" fill="white"/>
<path d="M42.3782 43.3216C38.4312 43.3216 35.2315 39.5572 35.2315 34.9135C35.2315 30.2698 38.4312 26.5054 42.3782 26.5054C46.3251 26.5054 49.5248 30.2698 49.5248 34.9135C49.5248 39.5572 46.3251 43.3216 42.3782 43.3216Z" fill="white"/>
<path d="M56.3406 41.0869C53.7577 41.0869 51.6638 38.6241 51.6638 35.586C51.6638 32.5479 53.7577 30.0851 56.3406 30.0851C58.9235 30.0851 61.0174 32.5479 61.0174 35.586C61.0174 38.6241 58.9235 41.0869 56.3406 41.0869Z" fill="black"/>
<path d="M42.9422 41.0869C40.3593 41.0869 38.2654 38.6241 38.2654 35.586C38.2654 32.5479 40.3593 30.0851 42.9422 30.0851C45.5251 30.0851 47.619 32.5479 47.619 35.586C47.619 38.6241 45.5251 41.0869 42.9422 41.0869Z" fill="black"/>
<path d="M47.5535 40.789C46.9185 39.463 47.1683 38.0219 48.1115 37.5703C49.0547 37.1186 50.334 37.8273 50.969 39.1533C51.604 40.4792 51.3542 41.9203 50.4111 42.372C49.4679 42.8237 48.1886 42.1149 47.5535 40.789Z" fill="#FFBE6A"/>
<path d="M58.4667 36.8197C59.0684 36.8197 59.4855 37.4264 59.2656 37.9851C58.7954 39.1859 57.6199 40.0378 56.2421 40.0378C54.8643 40.0378 53.6913 39.1859 53.2186 37.9851C52.9987 37.4239 53.4158 36.8197 54.0175 36.8197H58.4642H58.4667Z" fill="#8FAEFF"/>
<path d="M45.0681 36.8197C45.6698 36.8197 46.0869 37.4264 45.867 37.9851C45.3968 39.1859 44.2213 40.0378 42.8435 40.0378C41.4657 40.0378 40.2928 39.1859 39.82 37.9851C39.6001 37.4239 40.0172 36.8197 40.6189 36.8197H45.0656H45.0681Z" fill="#8FAEFF"/>
<defs>
<radialGradient id="paint0_radial_324_2053" cx="0" cy="0" r="1" gradientUnits="userSpaceOnUse" gradientTransform="translate(59.1642 72.3192) scale(59.1063 13.282)">
<stop stop-color="#91AFFF" stop-opacity="0.8"/>
<stop offset="0.846154" stop-color="#D2DBF6" stop-opacity="0"/>
</radialGradient>
<linearGradient id="paint1_linear_324_2053" x1="30.934" y1="59.4883" x2="96.4927" y2="59.4883" gradientUnits="userSpaceOnUse">
<stop stop-color="#E1E0FF"/>
<stop offset="1" stop-color="#8FAEFF"/>
</linearGradient>
<linearGradient id="paint2_linear_324_2053" x1="49.894" y1="69.2617" x2="49.894" y2="11.3705" gradientUnits="userSpaceOnUse">
<stop stop-color="#E1E0FF"/>
<stop offset="1" stop-color="#8FAEFF"/>
</linearGradient>
</defs>
</svg>
